<?xml version="1.0" encoding="UTF-8" standalone="no"?>
<svg width="566px" height="260px" viewBox="0 0 566 260" version="1.1" xmlns="http://www.w3.org/2000/svg" xmlns:xlink="http://www.w3.org/1999/xlink" xmlns:sketch="http://www.bohemiancoding.com/sketch/ns">
    <title>logo-web</title>
    <description>Created with Sketch (http://www.bohemiancoding.com/sketch)</description>
    <defs></defs>
    <g id="Page 1" stroke="none" stroke-width="1" fill="none" fill-rule="evenodd" stroke-linejoin="round">
        <g id="logo-web" stroke-width="7" stroke="#FFFFFF" fill="#FFFFFF">
            <g id="title" transform="translate(23.000000, 23.000000)">
                <path d="M0,86 L0,1 L20.1571429,1 L42.5,36.9428571 L64.8428571,1 L85,1 L85,86 L66.4214286,86 L66.4214286,30.5071429 L42.5,66.8142857 L42.0142857,66.8142857 L18.3357143,30.8714286 L18.3357143,86 Z M98,86 L134.38814,1 L151.61186,1 L188,86 L168.471698,86 L160.708895,67.070922 L124.80593,67.070922 L117.043127,86 Z M131,50 L154,50 L142.5,23 Z M201,1 L219.615385,1 L219.615385,38.1571429 L253.945055,1 L276.428571,1 L241.978022,37.0642857 L278,86 L255.637363,86 L229.406593,49.8142857 L219.615385,60.0142857 L219.615385,86 L201,86 Z M290,1 L354.390244,1 L354.390244,17.6357143 L308.658537,17.6357143 L308.658537,34.8785714 L348.902439,34.8785714 L348.902439,51.5142857 L308.658537,51.5142857 L308.658537,69.3642857 L355,69.3642857 L355,86 L290,86 Z M371,86 L371,1 L409.61157,1 C420.350413,1 428.676033,4.03571429 434.226446,9.62142857 C438.932231,14.3571429 441.466116,21.0357143 441.466116,29.05 L441.466116,29.2928571 C441.466116,43.0142857 434.105785,51.6357143 423.366942,55.6428571 L444,86 L422.280992,86 L404.181818,58.8 L403.940496,58.8 L389.581818,58.8 L389.581818,86 Z M390,42 L408.788321,42 C417.821168,42 423,37.2238806 423,30.1791045 L423,29.9402985 C423,22.0597015 417.459854,18 408.427007,18 L390,18 Z M488.918773,87 C476.099278,87 463.158845,82.5291667 453,73.4666667 L464.005415,60.2958333 C471.624549,66.5791667 479.606498,70.5666667 489.281588,70.5666667 C496.900722,70.5666667 501.49639,67.5458333 501.49639,62.5916667 L501.49639,62.35 C501.49639,57.6375 498.593863,55.2208333 484.444043,51.5958333 C467.391697,47.2458333 456.386282,42.5333333 456.386282,25.7375 L456.386282,25.4958333 C456.386282,10.15 468.722022,0 486.016245,0 C498.351986,0 508.873646,3.86666667 517.460289,10.7541667 L507.785199,24.7708333 C500.287004,19.575 492.909747,16.4333333 485.774368,16.4333333 C478.638989,16.4333333 474.889892,19.6958333 474.889892,23.8041667 L474.889892,24.0458333 C474.889892,29.6041667 478.518051,31.4166667 493.151625,35.1625 C510.32491,39.6333333 520,45.7958333 520,60.5375 L520,60.7791667 C520,77.575 507.180505,87 488.918773,87 Z M137.346749,217 C112.473684,217 94,197.674033 94,173.243094 L94,173 C94,148.812155 112.111455,129 138.071207,129 C154.009288,129 163.547988,134.348066 171.396285,142.127072 L159.563467,155.861878 C153.043344,149.906077 146.402477,146.259669 137.950464,146.259669 C123.702786,146.259669 113.439628,158.171271 113.439628,172.756906 L113.439628,173 C113.439628,187.585635 123.4613,199.740331 137.950464,199.740331 C147.609907,199.740331 153.526316,195.850829 160.167183,189.773481 L172,201.80663 C163.306502,211.165746 153.647059,217 137.346749,217 Z M187,216 L187,131 L205.675944,131 L205.675944,199 L248,199 L248,216 Z M294.757377,217 C271.95082,217 258,204.299578 258,179.38256 L258,131 L276.681967,131 L276.681967,178.898734 C276.681967,192.687764 283.596721,199.824191 295,199.824191 C306.403279,199.824191 313.318033,192.929677 313.318033,179.503516 L313.318033,131 L332,131 L332,178.777778 C332,204.420534 317.563934,217 294.757377,217 Z M351,216 L351,131 L390.327731,131 C400.008403,131 407.631933,133.671429 412.472269,138.528571 C416.344538,142.414286 418.280672,147.15 418.280672,152.978571 L418.280672,153.221429 C418.280672,162.814286 413.198319,168.157143 407.147899,171.557143 C416.94958,175.321429 423,181.028571 423,192.442857 L423,192.685714 C423,208.228571 410.415126,216 391.295798,216 Z M369,165 L386.399209,165 C394.731225,165 400,162.324324 400,156 L400,155.756757 C400,150.162162 395.588933,147 387.624506,147 L369,147 Z M369,200 L390.934932,200 C399.085616,200 404,197.038961 404,190.623377 L404,190.376623 C404,184.577922 399.804795,181 390.335616,181 L369,181 Z M369,200"></path>
            </g>
        </g>
    </g>
</svg>